<svg width="16" height="17" viewBox="0 0 16 17" fill="none" xmlns="http://www.w3.org/2000/svg">
<path d="M14.7368 10.7034C13.762 10.7053 12.7931 10.5503 11.8669 10.2442C11.4339 10.0918 10.9526 10.1944 10.6181 10.5102L8.80086 11.8896C6.84924 10.9037 5.26572 9.31081 4.2855 7.3474L5.62023 5.56306C5.95722 5.22377 6.07773 4.72363 5.93266 4.26675C5.62729 3.33363 5.47236 2.35738 5.4737 1.37502C5.4737 0.67313 4.90816 0.104126 4.21054 0.104126H1.26316C0.56554 0.104126 0 0.67313 0 1.37502C0.00927632 9.55995 6.60174 16.1928 14.7368 16.2021C15.4345 16.2021 16 15.6331 16 14.9312V11.9743C16 11.2724 15.4345 10.7034 14.7368 10.7034Z" fill="#0450A0"/>
</svg>
