<svg width="18" height="18" viewBox="0 0 18 18" fill="none" xmlns="http://www.w3.org/2000/svg">
<path d="M15.3659 2.625C13.6725 0.937499 11.4146 0 9.03136 0C4.07665 0 0.0627168 4 0.0627168 8.9375C0.0627168 10.5 0.501742 12.0625 1.25436 13.375L0 18L4.76655 16.75C6.08362 17.4375 7.52613 17.8125 9.03136 17.8125C13.9861 17.8125 18 13.8125 18 8.875C17.9373 6.5625 17.0592 4.3125 15.3659 2.625ZM13.3589 12.125C13.1707 12.625 12.2927 13.125 11.8537 13.1875C11.4773 13.25 10.9756 13.25 10.4739 13.125C10.1603 13 9.72125 12.875 9.21951 12.625C6.96167 11.6875 5.51917 9.4375 5.39373 9.25C5.26829 9.125 4.45296 8.0625 4.45296 6.9375C4.45296 5.8125 5.01742 5.3125 5.20557 5.0625C5.39373 4.8125 5.6446 4.8125 5.83275 4.8125C5.95819 4.8125 6.14634 4.8125 6.27177 4.8125C6.39721 4.8125 6.58536 4.75 6.77352 5.1875C6.96167 5.625 7.40069 6.75 7.46341 6.8125C7.52613 6.9375 7.52613 7.0625 7.46341 7.1875C7.40069 7.3125 7.33798 7.4375 7.21254 7.5625C7.08711 7.6875 6.96167 7.875 6.89895 7.9375C6.77352 8.0625 6.64808 8.1875 6.77352 8.375C6.89895 8.625 7.33798 9.3125 8.02787 9.9375C8.90592 10.6875 9.59582 10.9375 9.84669 11.0625C10.0976 11.1875 10.223 11.125 10.3484 11C10.4739 10.875 10.9129 10.375 11.0383 10.125C11.1638 9.875 11.3519 9.9375 11.5401 10C11.7282 10.0625 12.8571 10.625 13.0453 10.75C13.2962 10.875 13.4216 10.9375 13.4843 11C13.547 11.1875 13.547 11.625 13.3589 12.125Z" fill="#0450A0"/>
</svg>
